# Blender 3.3.1
# www.blender.org
mtllib missile_air_to_ground.mtl
o Fuse.084_Cylinder.002
v 7.510011 1.461664 -0.690341
v 7.510011 1.510958 -3.038933
v 7.607635 1.461664 -0.690341
v 7.607635 1.510958 -3.038933
v 7.577272 1.461664 -0.621495
v 7.540373 1.461664 -0.621495
v 7.656278 1.495034 -3.406270
v 7.656278 1.419768 0.287932
v 7.724161 1.427165 -3.407652
v 7.724161 1.351899 0.286549
v 7.749008 1.334455 -3.409542
v 7.749008 1.259188 0.284661
v 7.724161 1.241744 -3.411430
v 7.724161 1.166478 0.282772
v 7.656278 1.173875 -3.412813
v 7.656278 1.098609 0.281389
v 7.641682 1.385394 0.718857
v 7.698750 1.328338 0.717695
v 7.719638 1.250398 0.716107
v 7.698750 1.172458 0.714519
v 7.641682 1.115402 0.713356
v 7.609385 1.321738 1.112056
v 7.642939 1.288190 1.111373
v 7.655221 1.242364 1.110439
v 7.642939 1.196537 1.109505
v 7.609385 1.162990 1.108822
v 7.572236 1.255036 1.342754
v 7.579590 1.247682 1.342604
v 7.582282 1.237638 1.342399
v 7.579590 1.227594 1.342194
v 7.572236 1.220240 1.342045
v 7.743273 1.213930 -1.510415
v 7.743273 1.190719 -0.371178
v 7.734093 1.325999 -1.508132
v 7.734093 1.302789 -0.368895
v 7.651690 1.138571 -1.511950
v 7.651690 1.115360 -0.372714
v 7.712513 1.165159 0.214558
v 7.720407 1.183117 0.214924
v 7.721287 1.172379 0.214706
v 7.721785 1.228057 -2.042196
v 7.702855 1.327687 -2.040166
v 7.650567 1.201163 -2.042744
v 7.641104 1.125939 -2.124038
v 7.719373 1.204192 -2.122444
v 7.644323 1.143467 -2.826275
v 7.716154 1.215282 -2.824812
v 7.693043 1.074011 -2.125096
v 7.771312 1.152263 -2.123502
v 7.696263 1.091538 -2.827333
v 7.768093 1.163353 -2.825870
v 7.692722 1.202630 -3.354080
v 7.667754 1.177668 -3.354589
v 7.719694 1.125739 -3.355647
v 7.744662 1.150702 -3.355138
v 7.623724 1.096778 -1.545909
v 7.736752 1.209782 -1.543606
v 7.788692 1.157853 -1.544664
v 7.675664 1.044849 -1.546967
v 7.623724 1.086003 -1.017070
v 7.736752 1.200663 -1.096025
v 7.788692 1.148734 -1.097082
v 7.675664 1.034074 -1.018128
v 7.642897 1.104058 -0.962004
v 7.736752 1.191445 -0.643602
v 7.788692 1.139516 -0.644660
v 7.694836 1.052129 -0.963062
v 7.735139 1.109329 -0.444637
v 7.637415 1.150373 -2.826134
v 7.634196 1.132846 -2.123897
v 7.712465 1.211098 -2.122303
v 7.709246 1.222188 -2.824671
v 7.685815 1.209537 -3.353940
v 7.660846 1.184574 -3.354448
v 7.616817 1.103684 -1.545768
v 7.729844 1.216688 -1.543466
v 7.720532 1.176412 -3.223328
v 7.720532 1.165018 -2.664062
v 8.009866 1.462780 -3.217494
v 8.009866 1.461443 -3.151928
v 7.725202 1.160350 -2.664158
v 7.725202 1.171745 -3.223423
v 8.011627 1.459682 -3.151964
v 8.011627 1.461017 -3.217529
v 7.711327 1.179919 -2.943508
v 8.007898 1.464079 -3.184671
v 7.734407 1.156844 -2.943978
v 8.013595 1.458382 -3.184787
v 7.663453 1.238917 -3.215829
v 7.663453 1.226158 -2.589645
v 7.984152 0.915032 -3.222428
v 7.984152 0.913535 -3.149018
v 7.658226 1.220932 -2.589751
v 7.658226 1.233691 -3.215936
v 7.982179 0.911563 -3.149058
v 7.982179 0.913059 -3.222468
v 7.673760 1.242842 -2.902527
v 7.986355 0.916487 -3.185678
v 7.647919 1.217006 -2.903054
v 7.979975 0.910107 -3.185808
v 7.557514 1.519876 -3.405764
v 7.557514 1.444609 0.288438
v 7.458750 1.495034 -3.406270
v 7.458750 1.419768 0.287932
v 7.390867 1.427165 -3.407652
v 7.390867 1.351899 0.286549
v 7.366021 1.334455 -3.409542
v 7.366021 1.259188 0.284661
v 7.390867 1.241744 -3.411430
v 7.390867 1.166478 0.282772
v 7.458750 1.173875 -3.412813
v 7.458750 1.098609 0.281389
v 7.557514 1.149033 -3.413319
v 7.557514 1.073767 0.280883
v 7.473347 1.385394 0.718857
v 7.557514 1.406278 0.719283
v 7.416279 1.328338 0.717695
v 7.395391 1.250398 0.716107
v 7.416279 1.172458 0.714519
v 7.473347 1.115402 0.713356
v 7.557514 1.094519 0.712931
v 7.505644 1.321738 1.112056
v 7.557514 1.334017 1.112306
v 7.472090 1.288190 1.111373
v 7.459808 1.242364 1.110439
v 7.472090 1.196537 1.109505
v 7.505644 1.162990 1.108822
v 7.557514 1.150711 1.108572
v 7.542793 1.255036 1.342754
v 7.557514 1.257727 1.342809
v 7.535439 1.247682 1.342604
v 7.532747 1.237638 1.342399
v 7.535439 1.227594 1.342194
v 7.542793 1.220240 1.342045
v 7.557514 1.217549 1.341990
v 7.557514 1.236873 1.379946
v 7.371756 1.213930 -1.510415
v 7.371756 1.190719 -0.371178
v 7.380936 1.325999 -1.508132
v 7.380936 1.302789 -0.368895
v 7.463339 1.138571 -1.511950
v 7.463339 1.115360 -0.372714
v 7.402515 1.165159 0.214558
v 7.394621 1.183117 0.214924
v 7.393742 1.172379 0.214706
v 7.393244 1.228057 -2.042196
v 7.412174 1.327687 -2.040166
v 7.464462 1.201163 -2.042744
v 7.473925 1.125939 -2.124038
v 7.395656 1.204192 -2.122444
v 7.470706 1.143467 -2.826275
v 7.398875 1.215282 -2.824812
v 7.421985 1.074011 -2.125096
v 7.343717 1.152263 -2.123502
v 7.418766 1.091538 -2.827333
v 7.346936 1.163353 -2.825870
v 7.422307 1.202630 -3.354080
v 7.447275 1.177668 -3.354589
v 7.395335 1.125739 -3.355647
v 7.370367 1.150702 -3.355138
v 7.491303 1.096778 -1.545909
v 7.378277 1.209782 -1.543606
v 7.326337 1.157853 -1.544664
v 7.439364 1.044849 -1.546967
v 7.491303 1.086003 -1.017070
v 7.378277 1.200663 -1.096025
v 7.326337 1.148734 -1.097082
v 7.439364 1.034074 -1.018128
v 7.472132 1.104058 -0.962004
v 7.378277 1.191445 -0.643602
v 7.326337 1.139516 -0.644660
v 7.420192 1.052129 -0.963062
v 7.379889 1.109329 -0.444637
v 7.477613 1.150373 -2.826134
v 7.480833 1.132846 -2.123897
v 7.402564 1.211098 -2.122303
v 7.405783 1.222188 -2.824671
v 7.429214 1.209537 -3.353940
v 7.454182 1.184574 -3.354448
v 7.498212 1.103684 -1.545768
v 7.385185 1.216688 -1.543466
v 7.394496 1.176412 -3.223328
v 7.394496 1.165018 -2.664062
v 7.105163 1.462780 -3.217494
v 7.105163 1.461443 -3.151928
v 7.389827 1.160350 -2.664158
v 7.389827 1.171745 -3.223423
v 7.103401 1.459682 -3.151964
v 7.103401 1.461017 -3.217529
v 7.403702 1.179919 -2.943508
v 7.107131 1.464079 -3.184671
v 7.380621 1.156844 -2.943978
v 7.101434 1.458382 -3.184787
v 7.451576 1.238917 -3.215829
v 7.451576 1.226158 -2.589645
v 7.130877 0.915032 -3.222428
v 7.130877 0.913535 -3.149018
v 7.456803 1.220932 -2.589751
v 7.456803 1.233691 -3.215936
v 7.132850 0.911563 -3.149058
v 7.132850 0.913059 -3.222468
v 7.441268 1.242842 -2.902527
v 7.128674 0.916487 -3.185678
v 7.467110 1.217006 -2.903054
v 7.135053 0.910107 -3.185808
vn 0.9967 0.0816 0.0017
vn 0.6355 -0.7720 -0.0157
vn 0.9959 0.0808 0.0399
vn 0.6354 -0.7722 -0.0003
vn 0.5311 -0.8442 -0.0723
vn 0.9901 0.1324 -0.0471
vn 0.7071 0.7071 0.0079
vn 0.7057 0.7069 -0.0481
vn 0.7071 -0.7070 -0.0144
vn 0.7065 0.7072 -0.0280
vn -0.7071 -0.7068 -0.0209
vn -0.0000 0.0204 -0.9998
vn 0.7064 0.7072 -0.0280
vn -0.7057 -0.7043 -0.0769
vn -0.7071 -0.7070 -0.0144
vn 0.7057 0.7068 -0.0481
vn -0.7065 -0.7055 -0.0568
vn 0.7071 0.7070 0.0144
vn -0.7071 0.7070 0.0144
vn -0.6995 -0.7023 0.1319
vn -0.6335 -0.6424 0.4312
vn -0.9037 0.3983 0.1571
vn 0.6808 0.6751 0.2842
vn 0.6027 -0.7969 0.0411
vn -0.0000 -0.0204 0.9998
vn -0.7065 -0.7054 -0.0568
vn -0.0000 0.0203 -0.9998
vn -0.6599 0.7484 0.0657
vn 0.7496 -0.6608 0.0369
vn 0.0001 0.0203 -0.9998
vn 0.5457 0.5325 0.6471
vn 0.7072 0.7069 0.0144
vn 0.7078 -0.7034 -0.0648
vn -0.7046 0.7087 -0.0361
vn 0.7496 0.6588 0.0638
vn -0.6599 -0.7505 0.0351
vn 0.5456 -0.5584 0.6249
vn 0.7071 -0.7069 -0.0144
vn -0.7046 -0.7066 -0.0649
vn 0.7078 0.7055 -0.0361
vn -0.9967 0.0816 0.0017
vn -0.6355 -0.7720 -0.0157
vn -0.9959 0.0808 0.0399
vn -0.6354 -0.7722 -0.0003
vn -0.5311 -0.8442 -0.0723
vn -0.9901 0.1324 -0.0471
vn -0.7071 0.7071 0.0079
vn -0.7057 0.7069 -0.0481
vn -0.7065 0.7072 -0.0280
vn 0.7071 -0.7068 -0.0209
vn -0.7064 0.7072 -0.0280
vn 0.7057 -0.7043 -0.0769
vn -0.7057 0.7068 -0.0481
vn 0.7065 -0.7055 -0.0568
vn 0.6995 -0.7023 0.1319
vn 0.6335 -0.6424 0.4312
vn 0.9037 0.3983 0.1571
vn -0.6808 0.6751 0.2842
vn -0.6027 -0.7969 0.0411
vn 0.6599 0.7484 0.0657
vn -0.7496 -0.6608 0.0369
vn -0.0001 0.0203 -0.9998
vn -0.5456 0.5325 0.6471
vn -0.7072 0.7069 0.0144
vn -0.7078 -0.7034 -0.0648
vn 0.7046 0.7087 -0.0361
vn -0.7496 0.6588 0.0638
vn 0.6599 -0.7505 0.0351
vn -0.5456 -0.5584 0.6249
vn -0.7072 -0.7069 -0.0144
vn 0.7046 -0.7066 -0.0649
vn -0.7078 0.7055 -0.0361
vn -0.0000 -0.9998 -0.0206
vn -0.0000 0.9998 0.0204
vn -0.0000 0.9985 0.0542
vn 0.4928 0.8686 0.0517
vn 0.4933 0.8697 0.0177
vn 0.8655 0.4989 0.0440
vn 0.8660 0.4999 0.0102
vn 0.9994 -0.0007 0.0338
vn 1.0000 -0.0000 -0.0000
vn 0.8655 -0.5003 0.0236
vn 0.8660 -0.4999 -0.0102
vn 0.4928 -0.8700 0.0162
vn 0.4933 -0.8697 -0.0177
vn -0.0000 -0.9999 0.0135
vn -0.0000 -0.9998 -0.0204
vn 0.9935 -0.0023 0.1138
vn 0.8604 -0.4989 0.1037
vn 0.8604 0.4943 0.1239
vn 0.8433 0.4819 0.2380
vn 0.9735 -0.0047 0.2285
vn -0.0000 0.9911 0.1335
vn 0.4884 0.8626 0.1317
vn 0.4884 -0.8673 0.0964
vn -0.0000 -0.9957 0.0930
vn 0.7890 0.4438 0.4248
vn 0.9072 -0.0086 0.4207
vn 0.8433 -0.4912 0.2182
vn -0.0000 0.9697 0.2444
vn 0.4741 0.8457 0.2450
vn 0.4741 -0.8550 0.2103
vn -0.0000 -0.9788 0.2047
vn -0.0000 -0.9324 0.3615
vn 0.4404 -0.8121 0.3828
vn 0.7891 -0.4607 0.4064
vn -0.0000 0.9169 0.3991
vn 0.4404 0.7958 0.4156
vn -0.4933 0.8697 0.0177
vn -0.4928 0.8686 0.0517
vn -0.8660 0.4999 0.0102
vn -0.8655 0.4989 0.0440
vn -1.0000 -0.0000 -0.0000
vn -0.9994 -0.0007 0.0338
vn -0.8660 -0.4999 -0.0102
vn -0.8655 -0.5003 0.0236
vn -0.4933 -0.8697 -0.0177
vn -0.4928 -0.8700 0.0162
vn -0.8604 -0.4989 0.1037
vn -0.9935 -0.0023 0.1138
vn -0.9735 -0.0047 0.2285
vn -0.8433 0.4819 0.2380
vn -0.8604 0.4943 0.1239
vn -0.4884 0.8626 0.1317
vn -0.4884 -0.8673 0.0964
vn -0.9072 -0.0086 0.4207
vn -0.7891 0.4438 0.4248
vn -0.8433 -0.4912 0.2182
vn -0.4741 0.8457 0.2450
vn -0.4741 -0.8550 0.2103
vn -0.4404 -0.8121 0.3828
vn -0.7891 -0.4607 0.4064
vn -0.4404 0.7958 0.4156
vt 0.719945 0.420469
vt 0.719945 0.256951
vt 0.726742 0.420469
vt 0.726742 0.256951
vt 0.724628 0.425263
vt 0.722059 0.425263
vt 0.150066 0.998948
vt 0.174518 0.980608
vt 0.150066 0.784932
vt 0.153998 0.998948
vt 0.178826 0.976301
vt 0.153998 0.784932
vt 0.159369 0.998948
vt 0.184711 0.974724
vt 0.159369 0.784932
vt 0.164740 0.998948
vt 0.190595 0.976301
vt 0.164740 0.784932
vt 0.168672 0.998948
vt 0.194903 0.980608
vt 0.168672 0.784932
vt 0.151772 0.759938
vt 0.154983 0.759938
vt 0.159369 0.759938
vt 0.163755 0.759938
vt 0.166966 0.759938
vt 0.154771 0.737093
vt 0.156714 0.737093
vt 0.159369 0.737093
vt 0.162024 0.737093
vt 0.163967 0.737093
vt 0.158068 0.723655
vt 0.158618 0.723655
vt 0.159369 0.723655
vt 0.160120 0.723655
vt 0.160670 0.723655
vt 0.131802 0.845523
vt 0.131802 0.775579
vt 0.127335 0.845523
vt 0.127335 0.775579
vt 0.139048 0.845523
vt 0.139048 0.775579
vt 0.133728 0.739601
vt 0.132606 0.739601
vt 0.133034 0.739601
vt 0.132591 0.878175
vt 0.129088 0.878175
vt 0.136850 0.878175
vt 0.140597 0.883070
vt 0.133803 0.883070
vt 0.140317 0.926188
vt 0.134082 0.926188
vt 0.140597 0.883070
vt 0.133803 0.883070
vt 0.140317 0.926188
vt 0.134082 0.926188
vt 0.136116 0.958652
vt 0.138283 0.958652
vt 0.138283 0.958652
vt 0.136116 0.958652
vt 0.142105 0.847554
vt 0.132294 0.847554
vt 0.132294 0.847554
vt 0.142105 0.847554
vt 0.142105 0.815086
vt 0.132294 0.820075
vt 0.132294 0.820075
vt 0.142105 0.815086
vt 0.140441 0.811729
vt 0.132294 0.792299
vt 0.132294 0.792299
vt 0.140441 0.811729
vt 0.135751 0.779986
vt 0.140317 0.926188
vt 0.140597 0.883070
vt 0.133803 0.883070
vt 0.134082 0.926188
vt 0.136116 0.958652
vt 0.138283 0.958652
vt 0.142105 0.847554
vt 0.132294 0.847554
vt 0.173952 0.856012
vt 0.173952 0.910488
vt 0.213601 0.856012
vt 0.213601 0.862399
vt 0.173952 0.910488
vt 0.173952 0.856012
vt 0.213601 0.862399
vt 0.213601 0.856012
vt 0.173952 0.883250
vt 0.213601 0.859205
vt 0.173952 0.883250
vt 0.213601 0.859205
vt 0.173952 0.856012
vt 0.173952 0.910488
vt 0.213601 0.856012
vt 0.213601 0.862399
vt 0.173952 0.910488
vt 0.173952 0.856012
vt 0.213601 0.862399
vt 0.213601 0.856012
vt 0.173952 0.883250
vt 0.213601 0.859205
vt 0.173952 0.883250
vt 0.213601 0.859205
vt 0.148627 0.998948
vt 0.172942 0.986876
vt 0.148627 0.784932
vt 0.150066 0.998948
vt 0.174518 0.993143
vt 0.150066 0.784932
vt 0.153998 0.998948
vt 0.178826 0.997451
vt 0.153998 0.784932
vt 0.159369 0.998948
vt 0.184711 0.999028
vt 0.159369 0.784932
vt 0.164740 0.998948
vt 0.190595 0.997451
vt 0.164740 0.784932
vt 0.168672 0.998948
vt 0.194903 0.993143
vt 0.168672 0.784932
vt 0.170111 0.998948
vt 0.196480 0.986876
vt 0.170111 0.784932
vt 0.151772 0.759938
vt 0.150596 0.759938
vt 0.154983 0.759938
vt 0.159369 0.759938
vt 0.163755 0.759938
vt 0.166966 0.759938
vt 0.168142 0.759938
vt 0.154771 0.737093
vt 0.154059 0.737093
vt 0.156714 0.737093
vt 0.159369 0.737093
vt 0.162024 0.737093
vt 0.163967 0.737093
vt 0.164679 0.737093
vt 0.158068 0.723655
vt 0.157867 0.723655
vt 0.158618 0.723655
vt 0.159369 0.723655
vt 0.160120 0.723655
vt 0.160670 0.723655
vt 0.160871 0.723655
vt 0.159369 0.721479
vt 0.131802 0.845523
vt 0.131802 0.775579
vt 0.127335 0.845523
vt 0.127335 0.775579
vt 0.139048 0.845523
vt 0.139048 0.775579
vt 0.133728 0.739601
vt 0.132606 0.739601
vt 0.133034 0.739601
vt 0.132591 0.878175
vt 0.129088 0.878175
vt 0.136850 0.878175
vt 0.140597 0.883070
vt 0.133803 0.883070
vt 0.140317 0.926188
vt 0.134082 0.926188
vt 0.140597 0.883070
vt 0.133803 0.883070
vt 0.140317 0.926188
vt 0.134082 0.926188
vt 0.136116 0.958652
vt 0.138283 0.958652
vt 0.138283 0.958652
vt 0.136116 0.958652
vt 0.142105 0.847554
vt 0.132294 0.847554
vt 0.132294 0.847554
vt 0.142105 0.847554
vt 0.142105 0.815086
vt 0.132294 0.820075
vt 0.132294 0.820075
vt 0.142105 0.815086
vt 0.140441 0.811729
vt 0.132294 0.792299
vt 0.132294 0.792299
vt 0.140441 0.811729
vt 0.135751 0.779986
vt 0.140317 0.926188
vt 0.140597 0.883070
vt 0.133803 0.883070
vt 0.134082 0.926188
vt 0.136116 0.958652
vt 0.138283 0.958652
vt 0.142105 0.847554
vt 0.132294 0.847554
vt 0.173952 0.856012
vt 0.173952 0.910488
vt 0.213601 0.856012
vt 0.213601 0.862399
vt 0.173952 0.910488
vt 0.173952 0.856012
vt 0.213601 0.862399
vt 0.213601 0.856012
vt 0.173952 0.883250
vt 0.213601 0.859205
vt 0.173952 0.883250
vt 0.213601 0.859205
vt 0.173952 0.856012
vt 0.173952 0.910488
vt 0.213601 0.856012
vt 0.213601 0.862399
vt 0.173952 0.910488
vt 0.173952 0.856012
vt 0.213601 0.862399
vt 0.213601 0.856012
vt 0.173952 0.883250
vt 0.213601 0.859205
vt 0.173952 0.883250
vt 0.213601 0.859205
s 0
usemtl F2A
f 32/37/1 34/39/1 35/40/1 33/38/1
f 33/38/2 37/42/2 36/41/2 32/37/2
f 35/40/3 39/44/3 40/45/3 33/38/3
f 33/38/4 40/45/4 38/43/4 37/42/4
f 36/41/5 43/48/5 41/46/5 32/37/5
f 32/37/6 41/46/6 42/47/6 34/39/6
f 45/50/7 47/52/7 72/77/7 71/76/7
f 47/52/8 51/56/8 55/60/8 52/57/8
f 50/55/9 51/56/9 49/54/9 48/53/9
f 49/54/10 45/50/10 57/62/10 58/63/10
f 46/51/11 50/55/11 48/53/11 44/49/11
f 51/56/7 47/52/7 45/50/7 49/54/7
f 53/58/12 52/57/12 55/60/12 54/59/12
f 57/62/13 45/50/13 71/76/13 76/81/13
f 51/56/9 50/55/9 54/59/9 55/60/9
f 50/55/14 46/51/14 53/58/14 54/59/14
f 56/61/15 59/64/15 63/68/15 60/65/15
f 48/53/9 49/54/9 58/63/9 59/64/9
f 47/52/16 52/57/16 73/78/16 72/77/16
f 44/49/17 48/53/17 59/64/17 56/61/17
f 62/67/18 61/66/18 65/70/18 66/71/18
f 57/62/19 56/61/19 60/65/19 61/66/19
f 58/63/18 57/62/18 61/66/18 62/67/18
f 59/64/9 58/63/9 62/67/9 63/68/9
f 64/69/20 67/72/20 68/73/20
f 63/68/9 62/67/9 66/71/9 67/72/9
f 60/65/21 63/68/21 67/72/21 64/69/21
f 61/66/19 60/65/19 64/69/19 65/70/19
f 65/70/22 64/69/22 68/73/22
f 66/71/23 65/70/23 68/73/23
f 67/72/24 66/71/24 68/73/24
f 70/75/19 71/76/19 72/77/19 69/74/19
f 69/74/19 72/77/19 73/78/19 74/79/19
f 71/76/19 70/75/19 75/80/19 76/81/19
f 46/51/11 44/49/11 70/75/11 69/74/11
f 56/61/25 57/62/25 76/81/25 75/80/25
f 53/58/14 46/51/14 69/74/14 74/79/14
f 44/49/26 56/61/26 75/80/26 70/75/26
f 52/57/27 53/58/27 74/79/27 73/78/27
f 85/90/28 78/83/28 80/85/28 86/91/28
f 87/92/29 88/93/29 83/88/29 81/86/29
f 79/84/30 84/89/30 82/87/30 77/82/30
f 85/90/15 87/92/15 81/86/15 78/83/15
f 78/83/31 81/86/31 83/88/31 80/85/31
f 86/91/32 88/93/32 84/89/32 79/84/32
f 80/85/32 83/88/32 88/93/32 86/91/32
f 77/82/15 82/87/15 87/92/15 85/90/15
f 82/87/33 84/89/33 88/93/33 87/92/33
f 77/82/34 85/90/34 86/91/34 79/84/34
f 97/102/35 90/95/35 92/97/35 98/103/35
f 99/104/36 100/105/36 95/100/36 93/98/36
f 91/96/12 96/101/12 94/99/12 89/94/12
f 97/102/19 99/104/19 93/98/19 90/95/19
f 90/95/37 93/98/37 95/100/37 92/97/37
f 98/103/38 100/105/38 96/101/38 91/96/38
f 92/97/38 95/100/38 100/105/38 98/103/38
f 89/94/19 94/99/19 99/104/19 97/102/19
f 94/99/39 96/101/39 100/105/39 99/104/39
f 89/94/40 97/102/40 98/103/40 91/96/40
f 137/149/41 138/150/41 140/152/41 139/151/41
f 138/150/42 137/149/42 141/153/42 142/154/42
f 140/152/43 138/150/43 145/157/43 144/156/43
f 138/150/44 142/154/44 143/155/44 145/157/44
f 141/153/45 137/149/45 146/158/45 148/160/45
f 137/149/46 139/151/46 147/159/46 146/158/46
f 150/162/47 176/188/47 177/189/47 152/164/47
f 152/164/48 157/169/48 160/172/48 156/168/48
f 155/167/15 153/165/15 154/166/15 156/168/15
f 154/166/49 163/175/49 162/174/49 150/162/49
f 151/163/50 149/161/50 153/165/50 155/167/50
f 156/168/47 154/166/47 150/162/47 152/164/47
f 158/170/12 159/171/12 160/172/12 157/169/12
f 162/174/51 181/193/51 176/188/51 150/162/51
f 156/168/15 160/172/15 159/171/15 155/167/15
f 155/167/52 159/171/52 158/170/52 151/163/52
f 161/173/9 165/177/9 168/180/9 164/176/9
f 153/165/15 164/176/15 163/175/15 154/166/15
f 152/164/53 177/189/53 178/190/53 157/169/53
f 149/161/54 161/173/54 164/176/54 153/165/54
f 167/179/19 171/183/19 170/182/19 166/178/19
f 162/174/18 166/178/18 165/177/18 161/173/18
f 163/175/19 167/179/19 166/178/19 162/174/19
f 164/176/15 168/180/15 167/179/15 163/175/15
f 169/181/55 173/185/55 172/184/55
f 168/180/15 172/184/15 171/183/15 167/179/15
f 165/177/56 169/181/56 172/184/56 168/180/56
f 166/178/18 170/182/18 169/181/18 165/177/18
f 170/182/57 173/185/57 169/181/57
f 171/183/58 173/185/58 170/182/58
f 172/184/59 173/185/59 171/183/59
f 175/187/18 174/186/18 177/189/18 176/188/18
f 174/186/18 179/191/18 178/190/18 177/189/18
f 176/188/18 181/193/18 180/192/18 175/187/18
f 151/163/50 174/186/50 175/187/50 149/161/50
f 161/173/25 180/192/25 181/193/25 162/174/25
f 158/170/52 179/191/52 174/186/52 151/163/52
f 149/161/54 175/187/54 180/192/54 161/173/54
f 157/169/27 178/190/27 179/191/27 158/170/27
f 190/202/60 191/203/60 185/197/60 183/195/60
f 192/204/61 186/198/61 188/200/61 193/205/61
f 184/196/62 182/194/62 187/199/62 189/201/62
f 190/202/9 183/195/9 186/198/9 192/204/9
f 183/195/63 185/197/63 188/200/63 186/198/63
f 191/203/64 184/196/64 189/201/64 193/205/64
f 185/197/64 191/203/64 193/205/64 188/200/64
f 182/194/9 190/202/9 192/204/9 187/199/9
f 187/199/65 192/204/65 193/205/65 189/201/65
f 182/194/66 184/196/66 191/203/66 190/202/66
f 202/214/67 203/215/67 197/209/67 195/207/67
f 204/216/68 198/210/68 200/212/68 205/217/68
f 196/208/12 194/206/12 199/211/12 201/213/12
f 202/214/18 195/207/18 198/210/18 204/216/18
f 195/207/69 197/209/69 200/212/69 198/210/69
f 203/215/70 196/208/70 201/213/70 205/217/70
f 197/209/70 203/215/70 205/217/70 200/212/70
f 194/206/18 202/214/18 204/216/18 199/211/18
f 199/211/71 204/216/71 205/217/71 201/213/71
f 194/206/72 196/208/72 203/215/72 202/214/72
s 1
f 2/2/73 4/4/73 3/3/73 5/5/73 6/6/73 1/1/73
f 101/106/74 102/108/75 8/9/76 7/7/77
f 7/7/77 8/9/76 10/12/78 9/10/79
f 9/10/79 10/12/78 12/15/80 11/13/81
f 11/13/81 12/15/80 14/18/82 13/16/83
f 13/16/83 14/18/82 16/21/84 15/19/85
f 15/19/85 16/21/84 114/126/86 113/124/87
f 14/18/82 12/15/80 19/24/88 20/25/89
f 19/24/88 18/23/90 23/28/91 24/29/92
f 8/9/76 102/108/75 116/128/93 17/22/94
f 12/15/80 10/12/78 18/23/90 19/24/88
f 10/12/78 8/9/76 17/22/94 18/23/90
f 114/126/86 16/21/84 21/26/95 121/133/96
f 16/21/84 14/18/82 20/25/89 21/26/95
f 24/29/92 23/28/91 28/33/97 29/34/98
f 20/25/89 19/24/88 24/29/92 25/30/99
f 17/22/94 116/128/93 123/135/100 22/27/101
f 21/26/95 20/25/89 25/30/99 26/31/102
f 18/23/90 17/22/94 22/27/101 23/28/91
f 121/133/96 21/26/95 26/31/102 128/140/103
f 135/147/104 31/36/105 136/148/25
f 25/30/99 24/29/92 29/34/98 30/35/106
f 22/27/101 123/135/100 130/142/107 27/32/108
f 26/31/102 25/30/99 30/35/106 31/36/105
f 23/28/91 22/27/101 27/32/108 28/33/97
f 128/140/103 26/31/102 31/36/105 135/147/104
f 29/34/98 28/33/97 136/148/25
f 30/35/106 29/34/98 136/148/25
f 27/32/108 130/142/107 136/148/25
f 31/36/105 30/35/106 136/148/25
f 28/33/97 27/32/108 136/148/25
f 101/107/12 7/8/12 9/11/12 11/14/12 13/17/12 15/20/12 113/125/12
f 101/106/74 103/109/109 104/111/110 102/108/75
f 103/109/109 105/112/111 106/114/112 104/111/110
f 105/112/111 107/115/113 108/117/114 106/114/112
f 107/115/113 109/118/115 110/120/116 108/117/114
f 109/118/115 111/121/117 112/123/118 110/120/116
f 111/121/117 113/124/87 114/126/86 112/123/118
f 110/120/116 119/131/119 118/130/120 108/117/114
f 118/130/120 125/137/121 124/136/122 117/129/123
f 104/111/110 115/127/124 116/128/93 102/108/75
f 108/117/114 118/130/120 117/129/123 106/114/112
f 106/114/112 117/129/123 115/127/124 104/111/110
f 114/126/86 121/133/96 120/132/125 112/123/118
f 112/123/118 120/132/125 119/131/119 110/120/116
f 125/137/121 132/144/126 131/143/127 124/136/122
f 119/131/119 126/138/128 125/137/121 118/130/120
f 115/127/124 122/134/129 123/135/100 116/128/93
f 120/132/125 127/139/130 126/138/128 119/131/119
f 117/129/123 124/136/122 122/134/129 115/127/124
f 121/133/96 128/140/103 127/139/130 120/132/125
f 135/147/104 136/148/25 134/146/131
f 126/138/128 133/145/132 132/144/126 125/137/121
f 122/134/129 129/141/133 130/142/107 123/135/100
f 127/139/130 134/146/131 133/145/132 126/138/128
f 124/136/122 131/143/127 129/141/133 122/134/129
f 128/140/103 135/147/104 134/146/131 127/139/130
f 132/144/126 136/148/25 131/143/127
f 133/145/132 136/148/25 132/144/126
f 129/141/133 136/148/25 130/142/107
f 134/146/131 136/148/25 133/145/132
f 131/143/127 136/148/25 129/141/133
f 101/107/12 113/125/12 111/122/12 109/119/12 107/116/12 105/113/12 103/110/12
